# xmcd
#
# Track frame offsets:
#	150
#	11157
#	22900
#	42017
#	51212
#	61495
#	73780
#	82962
#	92437
#	103042
#	116317
#	129410
#	141837
#	152525
#	160462
#	172495
#	181185
#	190935
#	200522
#	212410
#
# Disc length: 2952
#
# Revision: 1
# Processed by: cddbd v1.5.1PL0 Copyright (c) Steve Scherf et al.
# Submitted via: plextools 2.11
# Normalized: r0:DSETVAR1
#
DISCID=0e0b8614
DTITLE=Various Artist - Juke Box Jamboree
DYEAR=1900
DGENRE=Classic Rock
TTITLE0=The Ames Brothers - I'm Gonna Love You
TTITLE1=Scatman Brothers - Ghost Riders In The Sky
TTITLE2=Georgie Auld - In The Land Of Hi-Fi
TTITLE3=Kathy Barr - Welcome Matt
TTITLE4=Ray Anthony - Flip Flop
TTITLE5=Gene Bua - Well Honey
TTITLE6=Dave Appell - The Rock 'n' Roll Story
TTITLE7=Jill Corey - Love
TTITLE8=The Dovells - Jitterbug
TTITLE9=Sil Austin - Everythings Shakin
TTITLE10=Oscar Mc Loolie - Mama Don't Like
TTITLE11=The Morrison Sisters - Three Swingin Maids
TTITLE12=The Stargazers - She Loves To Rock
TTITLE13=Jackie Wilson - Please Stick Around
TTITLE14=Reg Qwen - Manhatten Spiritual
TTITLE15=The De Castro Sisters - Don't Call Me Sweety
TTITLE16=Bobby Poore - One And Two
TTITLE17=Freddy Tino - Shoestring Twist
TTITLE18=The Mc Guire Sisters - My Baby's Got Such Lovin Ways
TTITLE19=Debbie Reynolds - Aba Daba Honeymoon
EXTD=
EXTT0=
EXTT1=
EXTT2=
EXTT3=
EXTT4=
EXTT5=
EXTT6=
EXTT7=
EXTT8=
EXTT9=
EXTT10=
EXTT11=
EXTT12=
EXTT13=
EXTT14=
EXTT15=
EXTT16=
EXTT17=
EXTT18=
EXTT19=
PLAYORDER=
